ply
format ascii 1.0
element vertex 8
property float x
property float y
property float z
property uchar red
property uchar green
property uchar blue
element face 9
property list uchar int vertex_indices
end_header
0.0 0.0 0.0   0   0   0
1000.1 0.2 0.3 255   0   0
0000.1 1000.2 0.3   0 255   0
1000.1 1000.2 0.3   0   0 255
0000.1 0.2 1000.3 255 255 255
1000.1 0.2 1000.3   0 255 255
0000.1 1000.2 1000.3 255   0 255
1000.1 1000.2 1000.3 255 255   0
3 0 2 3 
3 4 5 7 
3 7 6 4 
3 0 4 6 
3 6 2 0 
3 1 3 7 
3 7 5 1 
3 5 4 0 
3 7 3 2 